<svg width="72" height="72" viewBox="0 0 72 72" fill="none" xmlns="http://www.w3.org/2000/svg">
<g filter="url(#filter0_d_2_13)">
<circle cx="36" cy="34" r="20" fill="white"/>
</g>
<path d="M45 29.5437C44.4112 29.7977 43.7716 29.9805 43.1117 30.0516C43.7919 29.6453 44.3096 29.0055 44.5533 28.2438C43.9239 28.6195 43.2132 28.8937 42.4721 29.0359C41.8731 28.3961 41.0203 28 40.0761 28C38.2589 28 36.797 29.4727 36.797 31.2805C36.797 31.5344 36.8274 31.7883 36.8782 32.032C34.1574 31.8898 31.731 30.5898 30.1168 28.5992C29.8325 29.0867 29.6701 29.6453 29.6701 30.2547C29.6701 31.3922 30.2487 32.3977 31.132 32.9867C30.5939 32.9664 30.0863 32.8141 29.6497 32.5703C29.6497 32.5805 29.6497 32.6008 29.6497 32.6109C29.6497 34.2055 30.7766 35.5258 32.2792 35.8305C32.0051 35.9016 31.7107 35.9422 31.4162 35.9422C31.203 35.9422 31 35.9219 30.797 35.8914C31.2132 37.1914 32.4213 38.1359 33.8629 38.1664C32.736 39.05 31.3249 39.568 29.7919 39.568C29.5178 39.568 29.264 39.5578 29 39.5273C30.4518 40.4617 32.1777 41 34.0355 41C40.066 41 43.3655 36.0031 43.3655 31.6664C43.3655 31.5242 43.3655 31.382 43.3553 31.2398C43.9949 30.7727 44.5533 30.1938 45 29.5437Z" fill="#7D4670"/>
<defs>
<filter id="filter0_d_2_13" x="0" y="0" width="72" height="72" filterUnits="userSpaceOnUse" color-interpolation-filters="sRGB">
<feFlood flood-opacity="0" result="BackgroundImageFix"/>
<feColorMatrix in="SourceAlpha" type="matrix" values="0 0 0 0 0 0 0 0 0 0 0 0 0 0 0 0 0 0 127 0" result="hardAlpha"/>
<feOffset dy="2"/>
<feGaussianBlur stdDeviation="8"/>
<feComposite in2="hardAlpha" operator="out"/>
<feColorMatrix type="matrix" values="0 0 0 0 0 0 0 0 0 0 0 0 0 0 0 0 0 0 0.11 0"/>
<feBlend mode="normal" in2="BackgroundImageFix" result="effect1_dropShadow_2_13"/>
<feBlend mode="normal" in="SourceGraphic" in2="effect1_dropShadow_2_13" result="shape"/>
</filter>
</defs>
</svg>
