<svg width="230" height="230" viewBox="0 0 230 230" fill="none" xmlns="http://www.w3.org/2000/svg">
<path fill-rule="evenodd" clip-rule="evenodd" d="M166.309 51.6364C134.291 25.6288 87.144 27.5288 57.3364 57.3364C27.5288 87.144 25.6288 134.291 51.6364 166.309L52.9793 164.966C27.7049 133.693 29.6024 87.7412 58.6718 58.6718C87.7412 29.6025 133.693 27.7049 164.966 52.9793L166.309 51.6364ZM65.4923 177.381C96.7539 202.239 142.376 200.209 171.293 171.293C200.209 142.376 202.239 96.7539 177.381 65.4923L178.725 64.1483C204.315 96.1557 202.283 142.973 172.628 172.628C142.973 202.283 96.1557 204.315 64.1483 178.725L65.4923 177.381Z" fill="#E6E6E6"/>
<circle cx="172.269" cy="58.9544" r="2.83286" fill="#E6E6E6"/>
<circle cx="57.6955" cy="172.269" r="2.83286" fill="#E6E6E6"/>
</svg>
